<?xml version="1.0" encoding="utf-8"?>
<!-- Generator: Adobe Illustrator 27.8.1, SVG Export Plug-In . SVG Version: 6.00 Build 0)  -->
<svg version="1.1" id="Layer_1" xmlns="http://www.w3.org/2000/svg" xmlns:xlink="http://www.w3.org/1999/xlink" x="0px" y="0px"
	 viewBox="0 0 1000 1000" style="enable-background:new 0 0 1000 1000;" xml:space="preserve">
<g>
	<g>
		<path d="M377.16,510.82v-75.78h16.02v62.57h32.49v13.21H377.16z"/>
		<path d="M460.13,511.93c-5.85,0-10.87-1.19-15.08-3.57c-4.21-2.38-7.44-5.76-9.71-10.14c-2.27-4.38-3.4-9.57-3.4-15.56
			c0-5.85,1.13-10.98,3.4-15.39c2.27-4.42,5.47-7.86,9.6-10.32c4.13-2.47,8.99-3.7,14.56-3.7c3.75,0,7.25,0.6,10.49,1.79
			c3.24,1.2,6.08,2.99,8.51,5.38c2.43,2.39,4.32,5.4,5.68,9.01c1.36,3.61,2.04,7.84,2.04,12.67v4.33h-47.99v-9.77h33.15
			c0-2.27-0.49-4.28-1.48-6.03c-0.99-1.75-2.35-3.13-4.09-4.13c-1.74-1-3.76-1.5-6.05-1.5c-2.39,0-4.51,0.55-6.35,1.65
			c-1.84,1.1-3.27,2.57-4.31,4.4c-1.04,1.84-1.57,3.88-1.59,6.12v9.29c0,2.81,0.52,5.24,1.57,7.29c1.05,2.05,2.54,3.63,4.46,4.74
			c1.92,1.11,4.21,1.66,6.85,1.66c1.75,0,3.35-0.25,4.81-0.74c1.46-0.49,2.7-1.23,3.74-2.22c1.04-0.99,1.83-2.19,2.37-3.63
			l14.58,0.96c-0.74,3.5-2.25,6.56-4.53,9.16c-2.28,2.6-5.22,4.63-8.81,6.07C468.95,511.21,464.81,511.93,460.13,511.93z"/>
		<path d="M510.94,511.9c-3.63,0-6.86-0.64-9.69-1.91c-2.84-1.27-5.08-3.16-6.72-5.66c-1.64-2.5-2.46-5.63-2.46-9.38
			c0-3.16,0.58-5.81,1.74-7.96c1.16-2.15,2.74-3.87,4.74-5.18c2-1.31,4.27-2.29,6.83-2.96c2.55-0.67,5.24-1.13,8.05-1.41
			c3.31-0.35,5.97-0.67,7.99-0.98c2.02-0.31,3.49-0.77,4.4-1.39c0.91-0.62,1.37-1.53,1.37-2.74v-0.22c0-2.34-0.73-4.16-2.2-5.44
			c-1.47-1.28-3.55-1.92-6.23-1.92c-2.84,0-5.09,0.62-6.77,1.87c-1.68,1.25-2.79,2.81-3.33,4.68l-14.58-1.18
			c0.74-3.45,2.19-6.44,4.37-8.97c2.17-2.53,4.98-4.48,8.42-5.85c3.44-1.37,7.43-2.05,11.97-2.05c3.16,0,6.19,0.37,9.08,1.11
			c2.9,0.74,5.48,1.89,7.73,3.44c2.26,1.55,4.04,3.55,5.35,5.98c1.31,2.43,1.96,5.34,1.96,8.71v38.33H528v-7.88h-0.44
			c-0.91,1.78-2.13,3.34-3.66,4.68c-1.53,1.34-3.37,2.39-5.51,3.15C516.23,511.52,513.75,511.9,510.94,511.9z M515.45,501.02
			c2.32,0,4.37-0.46,6.14-1.39c1.78-0.93,3.17-2.18,4.18-3.76c1.01-1.58,1.52-3.37,1.52-5.37v-6.03c-0.49,0.32-1.17,0.61-2.02,0.87
			c-0.85,0.26-1.81,0.49-2.87,0.7c-1.06,0.21-2.12,0.39-3.18,0.56c-1.06,0.16-2.02,0.3-2.89,0.43c-1.85,0.27-3.47,0.7-4.85,1.3
			c-1.38,0.59-2.45,1.39-3.22,2.39c-0.76,1-1.15,2.24-1.15,3.72c0,2.15,0.78,3.78,2.35,4.9
			C511.04,500.46,513.03,501.02,515.45,501.02z"/>
		<path d="M574.36,511.75c-4.32,0-8.22-1.12-11.71-3.35c-3.49-2.23-6.25-5.53-8.29-9.88c-2.04-4.35-3.05-9.7-3.05-16.04
			c0-6.51,1.05-11.93,3.14-16.26c2.1-4.33,4.89-7.57,8.38-9.73c3.49-2.16,7.32-3.24,11.49-3.24c3.18,0,5.84,0.54,7.97,1.61
			c2.13,1.07,3.86,2.41,5.18,4s2.32,3.15,3.02,4.68h0.48v-28.49h15.73v75.78h-15.54v-9.1h-0.67c-0.74,1.58-1.78,3.14-3.13,4.68
			c-1.34,1.54-3.08,2.82-5.22,3.83C580.02,511.24,577.42,511.75,574.36,511.75z M579.36,499.2c2.54,0,4.69-0.7,6.46-2.09
			c1.76-1.39,3.12-3.35,4.07-5.86c0.95-2.52,1.42-5.46,1.42-8.84c0-3.38-0.47-6.31-1.41-8.81c-0.94-2.49-2.29-4.42-4.07-5.77
			c-1.78-1.36-3.93-2.04-6.48-2.04c-2.59,0-4.77,0.7-6.55,2.11c-1.78,1.41-3.12,3.36-4.03,5.85c-0.91,2.49-1.37,5.38-1.37,8.66
			c0,3.31,0.46,6.22,1.39,8.75c0.92,2.53,2.27,4.5,4.03,5.92C574.59,498.5,576.77,499.2,579.36,499.2z"/>
		<path d="M635.2,510.82l-21.68-75.78h17.5l12.54,52.65h0.63l13.84-52.65h14.99l13.8,52.77h0.67l12.54-52.77h17.5l-21.68,75.78
			h-15.62l-14.43-49.55h-0.59l-14.39,49.55H635.2z"/>
		<path d="M731.93,446.66c-2.34,0-4.35-0.78-6.01-2.35c-1.66-1.57-2.5-3.45-2.5-5.64c0-2.17,0.83-4.04,2.5-5.61
			c1.67-1.57,3.67-2.35,6.01-2.35c2.34,0,4.35,0.78,6.01,2.35c1.66,1.57,2.5,3.44,2.5,5.61c0,2.2-0.83,4.08-2.5,5.64
			C736.28,445.88,734.27,446.66,731.93,446.66z M724.01,510.82v-56.84h15.76v56.84H724.01z"/>
		<path d="M797.87,470.19l-14.43,0.89c-0.25-1.23-0.78-2.35-1.59-3.35c-0.81-1-1.88-1.8-3.2-2.41c-1.32-0.6-2.89-0.91-4.72-0.91
			c-2.44,0-4.5,0.51-6.18,1.54c-1.68,1.02-2.52,2.39-2.52,4.09c0,1.36,0.54,2.5,1.63,3.44c1.09,0.94,2.95,1.69,5.59,2.26l10.29,2.07
			c5.53,1.14,9.65,2.96,12.36,5.48c2.71,2.52,4.07,5.82,4.07,9.92c0,3.73-1.09,6.99-3.28,9.81c-2.18,2.81-5.17,5-8.95,6.57
			c-3.79,1.57-8.15,2.35-13.08,2.35c-7.52,0-13.51-1.57-17.96-4.72c-4.45-3.15-7.06-7.43-7.83-12.86l15.5-0.81
			c0.47,2.29,1.6,4.04,3.4,5.24c1.8,1.2,4.11,1.79,6.92,1.79c2.76,0,4.99-0.54,6.68-1.61c1.69-1.07,2.55-2.46,2.57-4.16
			c-0.03-1.43-0.63-2.61-1.81-3.53c-1.18-0.93-3.01-1.63-5.48-2.13l-9.84-1.96c-5.55-1.11-9.68-3.03-12.38-5.77
			c-2.7-2.74-4.05-6.23-4.05-10.47c0-3.65,0.99-6.8,2.98-9.44c1.99-2.64,4.79-4.67,8.4-6.11c3.61-1.43,7.85-2.15,12.71-2.15
			c7.18,0,12.83,1.52,16.97,4.55C794.77,460.83,797.18,464.96,797.87,470.19z"/>
		<path d="M833.25,511.93c-5.85,0-10.87-1.19-15.08-3.57c-4.21-2.38-7.44-5.76-9.71-10.14c-2.27-4.38-3.4-9.57-3.4-15.56
			c0-5.85,1.13-10.98,3.4-15.39c2.27-4.42,5.47-7.86,9.6-10.32c4.13-2.47,8.99-3.7,14.56-3.7c3.75,0,7.25,0.6,10.49,1.79
			c3.24,1.2,6.08,2.99,8.51,5.38c2.43,2.39,4.32,5.4,5.68,9.01c1.36,3.61,2.04,7.84,2.04,12.67v4.33h-47.99v-9.77h33.15
			c0-2.27-0.49-4.28-1.48-6.03c-0.99-1.75-2.35-3.13-4.09-4.13c-1.74-1-3.76-1.5-6.05-1.5c-2.39,0-4.51,0.55-6.35,1.65
			c-1.84,1.1-3.27,2.57-4.31,4.4c-1.04,1.84-1.57,3.88-1.59,6.12v9.29c0,2.81,0.52,5.24,1.57,7.29c1.05,2.05,2.54,3.63,4.46,4.74
			c1.92,1.11,4.21,1.66,6.85,1.66c1.75,0,3.35-0.25,4.81-0.74c1.46-0.49,2.7-1.23,3.74-2.22c1.04-0.99,1.83-2.19,2.37-3.63
			l14.58,0.96c-0.74,3.5-2.25,6.56-4.53,9.16c-2.28,2.6-5.22,4.63-8.81,6.07C842.08,511.21,837.94,511.93,833.25,511.93z"/>
	</g>
</g>
<g>
	<g>
		<path d="M390.23,593.75h-17.17l26.16-75.78h20.65l26.12,75.78h-17.17l-18.98-58.46h-0.59L390.23,593.75z M389.15,563.96h40.56
			v12.51h-40.56V563.96z"/>
		<path d="M476.04,594.86c-5.82,0-10.82-1.24-15-3.72c-4.18-2.48-7.39-5.93-9.62-10.34c-2.23-4.42-3.35-9.5-3.35-15.24
			c0-5.82,1.13-10.93,3.39-15.34c2.26-4.4,5.47-7.84,9.64-10.32c4.17-2.48,9.13-3.72,14.88-3.72c4.96,0,9.3,0.9,13.03,2.7
			c3.72,1.8,6.67,4.33,8.84,7.59c2.17,3.26,3.37,7.08,3.59,11.47h-14.88c-0.42-2.84-1.52-5.13-3.31-6.86
			c-1.79-1.74-4.13-2.61-7.01-2.61c-2.44,0-4.57,0.66-6.38,1.98c-1.81,1.32-3.23,3.24-4.24,5.75c-1.01,2.52-1.52,5.56-1.52,9.14
			c0,3.63,0.5,6.71,1.5,9.25s2.41,4.48,4.24,5.81c1.83,1.33,3.96,2,6.4,2c1.8,0,3.42-0.37,4.87-1.11c1.44-0.74,2.64-1.82,3.59-3.24
			c0.95-1.42,1.57-3.13,1.87-5.13h14.88c-0.25,4.34-1.42,8.16-3.53,11.45c-2.11,3.29-5.01,5.86-8.71,7.71
			C485.48,593.94,481.1,594.86,476.04,594.86z"/>
		<path d="M526,594.82c-3.63,0-6.86-0.64-9.69-1.91c-2.84-1.27-5.08-3.16-6.72-5.66c-1.64-2.5-2.46-5.63-2.46-9.38
			c0-3.16,0.58-5.81,1.74-7.96c1.16-2.15,2.74-3.87,4.74-5.18c2-1.31,4.27-2.29,6.83-2.96c2.55-0.67,5.24-1.13,8.05-1.41
			c3.31-0.35,5.97-0.67,7.99-0.98c2.02-0.31,3.49-0.77,4.4-1.39c0.91-0.62,1.37-1.53,1.37-2.74v-0.22c0-2.34-0.73-4.16-2.2-5.44
			c-1.47-1.28-3.55-1.92-6.23-1.92c-2.84,0-5.09,0.62-6.77,1.87c-1.68,1.25-2.79,2.81-3.33,4.68l-14.58-1.18
			c0.74-3.45,2.19-6.44,4.37-8.97c2.17-2.53,4.98-4.48,8.42-5.85c3.44-1.37,7.43-2.05,11.97-2.05c3.16,0,6.19,0.37,9.08,1.11
			c2.9,0.74,5.48,1.89,7.73,3.44c2.26,1.55,4.04,3.55,5.35,5.98c1.31,2.43,1.96,5.34,1.96,8.71v38.33h-14.95v-7.88h-0.44
			c-0.91,1.78-2.13,3.34-3.66,4.68c-1.53,1.34-3.37,2.39-5.51,3.14C531.29,594.45,528.81,594.82,526,594.82z M530.51,583.95
			c2.32,0,4.37-0.46,6.14-1.39c1.78-0.92,3.17-2.18,4.18-3.76c1.01-1.58,1.52-3.37,1.52-5.37v-6.03c-0.49,0.32-1.17,0.61-2.02,0.87
			c-0.85,0.26-1.81,0.49-2.87,0.7c-1.06,0.21-2.12,0.39-3.18,0.56c-1.06,0.16-2.02,0.3-2.89,0.43c-1.85,0.27-3.47,0.7-4.85,1.29
			c-1.38,0.59-2.45,1.39-3.22,2.39c-0.76,1-1.15,2.24-1.15,3.72c0,2.15,0.78,3.78,2.35,4.9
			C526.1,583.39,528.09,583.95,530.51,583.95z"/>
		<path d="M589.43,594.68c-4.32,0-8.22-1.12-11.71-3.35c-3.49-2.23-6.25-5.53-8.29-9.88c-2.04-4.35-3.05-9.7-3.05-16.04
			c0-6.51,1.05-11.93,3.14-16.26c2.1-4.33,4.89-7.57,8.38-9.73c3.49-2.16,7.32-3.24,11.49-3.24c3.18,0,5.84,0.54,7.97,1.61
			c2.13,1.07,3.86,2.41,5.18,4c1.32,1.59,2.32,3.15,3.02,4.68h0.48v-28.49h15.73v75.78h-15.54v-9.1h-0.67
			c-0.74,1.58-1.78,3.14-3.13,4.68c-1.34,1.54-3.08,2.82-5.22,3.83C595.08,594.17,592.48,594.68,589.43,594.68z M594.42,582.13
			c2.54,0,4.69-0.7,6.46-2.09c1.76-1.39,3.12-3.35,4.07-5.86c0.95-2.52,1.42-5.46,1.42-8.84c0-3.38-0.47-6.31-1.41-8.81
			c-0.94-2.49-2.29-4.42-4.07-5.77c-1.78-1.36-3.93-2.04-6.48-2.04c-2.59,0-4.77,0.7-6.55,2.11c-1.78,1.41-3.12,3.36-4.03,5.85
			c-0.91,2.49-1.37,5.38-1.37,8.66c0,3.31,0.46,6.22,1.39,8.75c0.92,2.53,2.27,4.5,4.03,5.92
			C589.65,581.42,591.83,582.13,594.42,582.13z"/>
		<path d="M658.81,594.86c-5.85,0-10.87-1.19-15.08-3.57c-4.21-2.38-7.44-5.76-9.71-10.14c-2.27-4.38-3.4-9.57-3.4-15.56
			c0-5.85,1.13-10.98,3.4-15.39c2.27-4.42,5.47-7.86,9.6-10.32c4.13-2.47,8.99-3.7,14.56-3.7c3.75,0,7.25,0.6,10.49,1.79
			c3.24,1.2,6.08,2.99,8.51,5.38c2.43,2.39,4.32,5.4,5.68,9.01c1.36,3.61,2.04,7.84,2.04,12.67v4.33H636.9v-9.77h33.15
			c0-2.27-0.49-4.28-1.48-6.03c-0.99-1.75-2.35-3.13-4.09-4.13c-1.74-1-3.76-1.5-6.05-1.5c-2.39,0-4.51,0.55-6.35,1.65
			c-1.84,1.1-3.27,2.57-4.31,4.4c-1.04,1.84-1.57,3.88-1.59,6.12v9.29c0,2.81,0.52,5.24,1.57,7.29c1.05,2.05,2.54,3.63,4.46,4.74
			c1.92,1.11,4.21,1.67,6.85,1.67c1.75,0,3.35-0.25,4.81-0.74c1.46-0.49,2.7-1.23,3.74-2.22c1.04-0.99,1.83-2.19,2.37-3.63
			l14.58,0.96c-0.74,3.5-2.25,6.56-4.53,9.16c-2.28,2.6-5.22,4.63-8.81,6.07C667.63,594.14,663.5,594.86,658.81,594.86z"/>
		<path d="M693.41,593.75v-56.84h15.02v10.03h0.67c1.18-3.33,3.16-5.96,5.92-7.88c2.76-1.92,6.07-2.89,9.92-2.89
			c3.9,0,7.22,0.97,9.95,2.9c2.74,1.94,4.56,4.56,5.48,7.86h0.59c1.16-3.26,3.26-5.87,6.31-7.83c3.05-1.96,6.65-2.94,10.82-2.94
			c5.3,0,9.61,1.68,12.93,5.05c3.32,3.37,4.98,8.13,4.98,14.3v38.22h-15.73v-35.12c0-3.16-0.84-5.53-2.52-7.1
			c-1.68-1.58-3.77-2.37-6.29-2.37c-2.86,0-5.09,0.91-6.7,2.72c-1.6,1.81-2.41,4.2-2.41,7.16v34.71h-15.28V558.3
			c0-2.79-0.8-5.01-2.39-6.66c-1.59-1.65-3.68-2.48-6.27-2.48c-1.75,0-3.32,0.44-4.72,1.31c-1.39,0.88-2.5,2.1-3.31,3.66
			c-0.81,1.57-1.22,3.4-1.22,5.5v34.12H693.41z"/>
		<path d="M794.32,615.07c-2,0-3.87-0.15-5.61-0.46c-1.74-0.31-3.18-0.7-4.31-1.17l3.55-11.77c1.85,0.57,3.52,0.87,5.01,0.92
			c1.49,0.05,2.79-0.3,3.89-1.04c1.1-0.74,1.99-2,2.68-3.77l0.93-2.41l-20.39-58.46h16.58l11.77,41.74h0.59l11.88-41.74h16.69
			l-22.09,62.98c-1.06,3.06-2.5,5.73-4.31,8.01c-1.81,2.28-4.1,4.05-6.86,5.29C801.55,614.44,798.22,615.07,794.32,615.07z"/>
	</g>
</g>
<g>
	<path d="M228.95,539.13c-14.44-8.16-30.76-18.21-30.76-18.21s-5.65-5.02-5.65-16.95c0-11.93,0-25.22,0-25.22s0.63-16.21,18.83-25
		c0,0-23.23-12.56-40.81-15.69c0,0-7.53-2.51-7.53,5.02c0,7.53,0,106.59,0,106.59s0,5.79,4.39,6.41c4.39,0.63,45.2,4.39,82.87,37.67
		V561.3C250.3,561.3,243.39,547.3,228.95,539.13z"/>
	<path d="M336.3,438.06c-17.58,3.14-40.81,15.69-40.81,15.69c18.21,8.79,18.83,25,18.83,25s0,13.29,0,25.22
		c0,11.93-5.65,16.95-5.65,16.95s-16.32,10.04-30.76,18.21c-14.44,8.16-21.34,22.16-21.34,22.16v32.45
		c37.67-33.27,78.47-37.04,82.87-37.67c4.39-0.63,4.39-6.41,4.39-6.41s0-99.05,0-106.59C343.83,435.55,336.3,438.06,336.3,438.06z"
		/>
	<path d="M274.7,533.48c16.32-10.04,27.7-17.78,27.7-17.78s4.94-2.94,4.94-8.59s0-27.7,0-27.7s-2.48-28.91-53.28-30.02l0-0.03
		c-0.23,0-0.44,0.01-0.67,0.01c-0.22,0-0.44-0.01-0.67-0.01l0,0.03c-50.8,1.11-53.28,30.02-53.28,30.02s0,22.05,0,27.7
		s4.94,8.59,4.94,8.59s11.38,7.73,27.7,17.78c15.15,9.33,20.56,18.11,21.26,19.31l0,0.15c0,0,0.02-0.03,0.04-0.07
		c0.02,0.04,0.04,0.07,0.04,0.07l0-0.15C254.13,551.59,259.54,542.81,274.7,533.48z M242.31,511.51l7.53-40.18l-5.65-5.65l0.96-7.72
		h7.27h1.2h9.37l0.96,7.72l-5.65,5.65l7.53,40.18l-11.76,13.1L242.31,511.51z"/>
	<circle cx="254.06" cy="406.74" r="36.37"/>
</g>
</svg>
